#N canvas 41 49 1995 1058 10;
#X msg 269 570 disconnect;
#X obj 143 633 tgl 30 0 empty empty 1=connected 34 15 0 12 -4034 -258113
-1 1 1;
#X obj 143 604 mrpeach/udpsend;
#X obj 155 537 mrpeach/packOSC;
#X msg 282 537 connect 127.0.0.1 4243;
#X obj 161 398 pack f f f f;
#X obj 340 185 adc~;
#X msg 159 421 sendtyped /ch1 ffi \$1 \$2 \$3;
#X msg 228 464 sendtyped /ch1attack i 1;
#X msg 1079 498 sendtyped /ch2 ffi \$1 \$2 \$3;
#X obj 991 302 metro 500;
#X obj 1006 268 tgl 15 0 empty empty empty 17 7 0 10 -262144 -1 -1
0 1;
#X obj 1053 420 random 127;
#X obj 1080 470 pack i i i;
#X obj 1122 422 random 127;
#X obj 1198 424 random 127;
#X obj 886 355 bng 15 250 50 0 empty empty empty 17 7 0 10 -262144
-1 -1;
#X msg 554 470 sendtyped /ch2attack i 1;
#X floatatom 1052 266 5 0 0 0 - - -;
#X obj 163 294 channelAnalyser;
#X obj 482 301 channelAnalyser;
#X obj 480 403 pack f f f f;
#X msg 481 431 sendtyped /ch2 ffi \$1 \$2 \$3;
#X obj 1338 559 ctlout 1 16;
#X obj 1338 536 random 127;
#X obj 1423 535 random 127;
#X obj 1511 535 random 127;
#X obj 1603 536 random 127;
#X obj 1423 558 ctlout 2 16;
#X obj 1511 558 ctlout 3 16;
#X obj 1603 559 ctlout 4 16;
#X obj 1010 698 ctlout 16 16;
#X obj 1159 698 ctlout 17 16;
#X obj 1155 671 tgl 15 0 empty empty empty 17 7 0 10 -262144 -1 -1
0 1;
#X connect 0 0 2 0;
#X connect 2 0 1 0;
#X connect 3 0 2 0;
#X connect 4 0 2 0;
#X connect 5 0 7 0;
#X connect 6 0 19 0;
#X connect 6 1 20 0;
#X connect 7 0 3 0;
#X connect 8 0 3 0;
#X connect 9 0 3 0;
#X connect 10 0 12 0;
#X connect 10 0 14 0;
#X connect 10 0 15 0;
#X connect 11 0 10 0;
#X connect 12 0 13 0;
#X connect 13 0 9 0;
#X connect 14 0 13 1;
#X connect 15 0 13 2;
#X connect 16 0 17 0;
#X connect 16 0 8 0;
#X connect 17 0 3 0;
#X connect 18 0 10 1;
#X connect 19 0 5 0;
#X connect 19 1 5 0;
#X connect 19 1 8 0;
#X connect 19 1 33 0;
#X connect 19 2 5 1;
#X connect 19 2 31 0;
#X connect 19 3 5 2;
#X connect 20 0 21 0;
#X connect 20 1 17 0;
#X connect 20 1 21 0;
#X connect 20 2 21 1;
#X connect 20 3 21 2;
#X connect 21 0 22 0;
#X connect 22 0 3 0;
#X connect 24 0 23 0;
#X connect 25 0 28 0;
#X connect 26 0 29 0;
#X connect 27 0 30 0;
#X connect 33 0 32 0;
