#N canvas 441 240 667 541 10;
#X obj 72 115 env~ 512;
#X obj 107 152 dbtorms;
#X floatatom 108 177 11 0 0 0 - - -;
#X obj 209 173 f 0, f 4;
#X obj 247 172 + 1;
#X floatatom 227 311 5 0 54000 0 - - -;
#X msg 220 116 0;
#X obj 58 337 outlet;
#X obj 48 20 inlet~;
#X obj 120 336 outlet;
#X obj 120 310 bng 15 250 50 0 empty empty empty 17 7 0 10 -262144
-1 -1;
#X obj 170 334 outlet;
#X obj 226 335 outlet;
#X text 59 295 pitch;
#X text 115 293 attack;
#X text 168 297 amp (dB);
#X text 187 284 attack count;
#X floatatom 60 312 5 0 54000 0 - - -;
#X floatatom 173 313 5 0 54000 0 - - -;
#X obj 305 295 unpack;
#X floatatom 305 345 0 0 0 0 - - -;
#X floatatom 319 322 0 0 0 0 - - -;
#X obj 305 255 route 1 2 3 4;
#X obj 388 295 unpack;
#X floatatom 388 345 0 0 0 0 - - -;
#X floatatom 402 322 0 0 0 0 - - -;
#X obj 472 295 unpack;
#X floatatom 472 345 0 0 0 0 - - -;
#X floatatom 486 322 0 0 0 0 - - -;
#X text 443 258 number of peaks to output (default 0.);
#X obj 51 79 fiddle~ 1024 1 20 3;
#X connect 0 0 1 0;
#X connect 1 0 2 0;
#X connect 3 0 4 0;
#X connect 3 0 5 0;
#X connect 4 0 3 1;
#X connect 5 0 12 0;
#X connect 6 0 3 1;
#X connect 8 0 0 0;
#X connect 8 0 30 0;
#X connect 10 0 3 0;
#X connect 10 0 9 0;
#X connect 17 0 7 0;
#X connect 18 0 11 0;
#X connect 19 0 20 0;
#X connect 19 1 21 0;
#X connect 20 0 17 0;
#X connect 22 0 19 0;
#X connect 22 1 23 0;
#X connect 22 2 26 0;
#X connect 23 0 24 0;
#X connect 23 1 25 0;
#X connect 26 0 27 0;
#X connect 26 1 28 0;
#X connect 30 1 10 0;
#X connect 30 3 18 0;
#X connect 30 4 22 0;
#X coords 0 -1 1 1 213 75 1 52 258;
