#N canvas 230 156 1711 685 12;
#X text 62 109 synth;
#X obj 580 537 random 127;
#X obj 665 536 random 127;
#X obj 753 536 random 127;
#X obj 845 537 random 127;
#X obj 605 190 channelAnalyser;
#X obj 605 135 adc~ 9;
#X text 605 114 kick;
#X msg 926 472 9;
#X obj 665 559 ctlout 18 16;
#X obj 753 559 ctlout 19 16;
#X obj 845 560 ctlout 20 16;
#X obj 572 562 ctlout 17 16;
#X obj 615 336 random 127;
#X obj 622 384 noteout;
#X obj 921 221 loadbang;
#X floatatom 654 311 5 0 0 0 - - -;
#X obj 42 537 random 127;
#X obj 127 536 random 127;
#X obj 215 536 random 127;
#X obj 307 537 random 127;
#X obj 67 190 channelAnalyser;
#X obj 127 559 ctlout 18 16;
#X obj 215 559 ctlout 19 16;
#X obj 307 560 ctlout 20 16;
#X obj 34 562 ctlout 17 16;
#X obj 77 336 random 127;
#X obj 84 384 noteout;
#X obj 383 221 loadbang;
#X floatatom 116 311 5 0 0 0 - - -;
#X obj 67 135 adc~ 1;
#X msg 388 471 1;
#X msg 217 305 127;
#X obj 1147 533 random 127;
#X obj 1232 532 random 127;
#X obj 1320 532 random 127;
#X obj 1412 533 random 127;
#X obj 1172 186 channelAnalyser;
#X obj 1232 555 ctlout 18 16;
#X obj 1320 555 ctlout 19 16;
#X obj 1412 556 ctlout 20 16;
#X obj 1139 558 ctlout 17 16;
#X obj 1182 332 random 127;
#X obj 1189 380 noteout;
#X obj 1488 217 loadbang;
#X floatatom 1221 307 5 0 0 0 - - -;
#X text 1174 112 snare;
#X obj 1172 140 adc~ 11;
#X msg 1493 468 11;
#X connect 1 0 12 0;
#X connect 2 0 9 0;
#X connect 3 0 10 0;
#X connect 4 0 11 0;
#X connect 5 1 1 0;
#X connect 5 1 2 0;
#X connect 5 1 3 0;
#X connect 5 1 4 0;
#X connect 5 1 13 0;
#X connect 6 0 5 0;
#X connect 8 0 9 2;
#X connect 8 0 10 2;
#X connect 8 0 11 2;
#X connect 8 0 12 2;
#X connect 8 0 14 2;
#X connect 13 0 14 0;
#X connect 15 0 8 0;
#X connect 16 0 14 1;
#X connect 17 0 25 0;
#X connect 18 0 22 0;
#X connect 19 0 23 0;
#X connect 20 0 24 0;
#X connect 21 1 17 0;
#X connect 21 1 18 0;
#X connect 21 1 19 0;
#X connect 21 1 20 0;
#X connect 21 1 26 0;
#X connect 26 0 27 0;
#X connect 28 0 31 0;
#X connect 28 0 32 0;
#X connect 29 0 27 1;
#X connect 30 0 21 0;
#X connect 31 0 22 2;
#X connect 31 0 23 2;
#X connect 31 0 24 2;
#X connect 31 0 25 2;
#X connect 31 0 27 2;
#X connect 32 0 29 0;
#X connect 32 0 16 0;
#X connect 32 0 45 0;
#X connect 33 0 41 0;
#X connect 34 0 38 0;
#X connect 35 0 39 0;
#X connect 36 0 40 0;
#X connect 37 1 33 0;
#X connect 37 1 34 0;
#X connect 37 1 35 0;
#X connect 37 1 36 0;
#X connect 37 1 42 0;
#X connect 42 0 43 0;
#X connect 44 0 48 0;
#X connect 45 0 43 1;
#X connect 47 0 37 0;
#X connect 48 0 38 2;
#X connect 48 0 39 2;
#X connect 48 0 40 2;
#X connect 48 0 41 2;
#X connect 48 0 43 2;
